<?xml version="1.0" encoding="UTF-8" standalone="no"?>
<!DOCTYPE svg PUBLIC "-//W3C//DTD SVG 1.1//EN"
 "http://www.w3.org/Graphics/SVG/1.1/DTD/svg11.dtd">
<!-- Generated by graphviz version 2.43.0 (0)
 -->
<!-- Title: _G Pages: 1 -->
<svg width="2839pt" height="1032pt"
 viewBox="0.00 0.00 2838.50 1032.00" xmlns="http://www.w3.org/2000/svg" xmlns:xlink="http://www.w3.org/1999/xlink">
<g id="graph0" class="graph" transform="scale(1 1) rotate(0) translate(4 1028)">
<title>_G</title>
<polygon fill="white" stroke="transparent" points="-4,4 -4,-1028 2834.5,-1028 2834.5,4 -4,4"/>
<!-- _graphzexecute__zITYPE -->
<g id="node1" class="node">
<title>_graphzexecute__zITYPE</title>
<polygon fill="green" stroke="black" points="2290.5,-1024 2153.5,-1024 2153.5,-986 2290.5,-986 2290.5,-1024"/>
<text text-anchor="start" x="2161.5" y="-1008.8" font-family="Times,serif" font-size="14.00">zexecute_zITYPE</text>
<text text-anchor="middle" x="2222" y="-993.8" font-family="Times,serif" font-size="14.00">[zmergez3var]</text>
</g>
<!-- _275738704 -->
<g id="node2" class="node">
<title>_275738704</title>
<polygon fill="white" stroke="black" points="2830.5,-949 1613.5,-949 1613.5,-761 2830.5,-761 2830.5,-949"/>
<text text-anchor="start" x="1621.5" y="-933.8" font-family="Times,serif" font-size="14.00">i0 = zITYPE(zmergez3var) [UnionCast]</text>
<text text-anchor="start" x="1621.5" y="-918.8" font-family="Times,serif" font-size="14.00">i1 = ztuplez3z5bv12_z5bv5_z5bv5_z5enumz0zziop0(i0) [FieldAccess]</text>
<text text-anchor="start" x="1621.5" y="-903.8" font-family="Times,serif" font-size="14.00">i2 = ztuplez3z5bv12_z5bv5_z5bv5_z5enumz0zziop1(i0) [FieldAccess]</text>
<text text-anchor="start" x="1621.5" y="-888.8" font-family="Times,serif" font-size="14.00">i3 = ztuplez3z5bv12_z5bv5_z5bv5_z5enumz0zziop2(i0) [FieldAccess]</text>
<text text-anchor="start" x="1621.5" y="-873.8" font-family="Times,serif" font-size="14.00">i4 = ztuplez3z5bv12_z5bv5_z5bv5_z5enumz0zziop3(i0) [FieldAccess]</text>
<text text-anchor="start" x="1621.5" y="-858.8" font-family="Times,serif" font-size="14.00">i5 = inlined zrX_bits() [Comment]</text>
<text text-anchor="start" x="1621.5" y="-843.8" font-family="Times,serif" font-size="14.00">i6 = @unsigned_bv(i2, MachineIntConstant(5)) [Operation]</text>
<text text-anchor="start" x="1621.5" y="-828.8" font-family="Times,serif" font-size="14.00">i7 = zrX(i6) [Operation]</text>
<text text-anchor="start" x="1621.5" y="-813.8" font-family="Times,serif" font-size="14.00">i8 = inlined zsign_extend() [Comment]</text>
<text text-anchor="start" x="1621.5" y="-798.8" font-family="Times,serif" font-size="14.00">i9 = @sign_extend_bv_i_i(i1, MachineIntConstant(12), MachineIntConstant(64)) [Operation]</text>
<text text-anchor="start" x="1621.5" y="-783.8" font-family="Times,serif" font-size="14.00">i10 = @eq(EnumConstant(&#39;zRISCV_ADDI&#39;, Enum(&#39;ziop&#39;, (&#39;zRISCV_ADDI&#39;, &#39;zRISCV_SLTI&#39;, &#39;zRISCV_SLTIU&#39;, &#39;zRISCV_XORI&#39;, &#39;zRISCV_ORI&#39;, &#39;zRISCV_ANDI&#39;))), i4) [Operation]</text>
<text text-anchor="middle" x="2222" y="-768.8" font-family="Times,serif" font-size="14.00">goto if i10</text>
</g>
<!-- _graphzexecute__zITYPE&#45;&gt;_275738704 -->
<g id="edge25" class="edge">
<title>_graphzexecute__zITYPE&#45;&gt;_275738704</title>
<path fill="none" stroke="black" stroke-dasharray="5,2" d="M2222,-985.85C2222,-978.5 2222,-969.39 2222,-959.43"/>
<polygon fill="black" stroke="black" points="2225.5,-959.22 2222,-949.22 2218.5,-959.22 2225.5,-959.22"/>
</g>
<!-- _275739096 -->
<g id="node3" class="node">
<title>_275739096</title>
<polygon fill="white" stroke="black" points="2510.5,-710 1299.5,-710 1299.5,-672 2510.5,-672 2510.5,-710"/>
<text text-anchor="start" x="1307.5" y="-694.8" font-family="Times,serif" font-size="14.00">i11 = @eq(EnumConstant(&#39;zRISCV_SLTI&#39;, Enum(&#39;ziop&#39;, (&#39;zRISCV_ADDI&#39;, &#39;zRISCV_SLTI&#39;, &#39;zRISCV_SLTIU&#39;, &#39;zRISCV_XORI&#39;, &#39;zRISCV_ORI&#39;, &#39;zRISCV_ANDI&#39;))), i4) [Operation]</text>
<text text-anchor="middle" x="1905" y="-679.8" font-family="Times,serif" font-size="14.00">goto if i11</text>
</g>
<!-- _275738704&#45;&gt;_275739096 -->
<g id="edge22" class="edge">
<title>_275738704&#45;&gt;_275739096</title>
<path fill="none" stroke="black" stroke-dasharray="5,2" d="M2039.9,-760.94C2006.13,-743.68 1973.82,-727.17 1949.29,-714.64"/>
<polygon fill="black" stroke="black" points="1950.78,-711.47 1940.29,-710.03 1947.6,-717.7 1950.78,-711.47"/>
<text text-anchor="middle" x="2018" y="-731.8" font-family="Times,serif" font-size="14.00">False</text>
</g>
<!-- _275738760 -->
<g id="node19" class="node">
<title>_275738760</title>
<polygon fill="white" stroke="black" points="2788,-654 2290,-654 2290,-616 2788,-616 2788,-654"/>
<text text-anchor="start" x="2298" y="-638.8" font-family="Times,serif" font-size="14.00">i17 = @add_bits_bv_bv(i7, i9, MachineIntConstant(64)) [Operation]</text>
<text text-anchor="middle" x="2539" y="-623.8" font-family="Times,serif" font-size="14.00">goto</text>
</g>
<!-- _275738704&#45;&gt;_275738760 -->
<g id="edge24" class="edge">
<title>_275738704&#45;&gt;_275738760</title>
<path fill="none" stroke="black" stroke-dasharray="5,2" d="M2462.97,-761C2483.81,-746.22 2503.01,-729.31 2519,-710 2529.59,-697.22 2534.61,-679.32 2536.97,-664.33"/>
<polygon fill="black" stroke="black" points="2540.49,-664.41 2538.26,-654.05 2533.54,-663.53 2540.49,-664.41"/>
<text text-anchor="middle" x="2519" y="-731.8" font-family="Times,serif" font-size="14.00">True</text>
</g>
<!-- _275739264 -->
<g id="node4" class="node">
<title>_275739264</title>
<polygon fill="white" stroke="black" points="1826.5,-560.5 603.5,-560.5 603.5,-522.5 1826.5,-522.5 1826.5,-560.5"/>
<text text-anchor="start" x="611.5" y="-545.3" font-family="Times,serif" font-size="14.00">i12 = @eq(EnumConstant(&#39;zRISCV_SLTIU&#39;, Enum(&#39;ziop&#39;, (&#39;zRISCV_ADDI&#39;, &#39;zRISCV_SLTI&#39;, &#39;zRISCV_SLTIU&#39;, &#39;zRISCV_XORI&#39;, &#39;zRISCV_ORI&#39;, &#39;zRISCV_ANDI&#39;))), i4) [Operation]</text>
<text text-anchor="middle" x="1215" y="-530.3" font-family="Times,serif" font-size="14.00">goto if i12</text>
</g>
<!-- _275739096&#45;&gt;_275739264 -->
<g id="edge15" class="edge">
<title>_275739096&#45;&gt;_275739264</title>
<path fill="none" stroke="black" stroke-dasharray="5,2" d="M1820.74,-671.99C1691.32,-644.32 1444.44,-591.55 1309.25,-562.65"/>
<polygon fill="black" stroke="black" points="1309.83,-559.19 1299.32,-560.52 1308.36,-566.04 1309.83,-559.19"/>
<text text-anchor="middle" x="1739" y="-631.3" font-family="Times,serif" font-size="14.00">False</text>
</g>
<!-- _275739152 -->
<g id="node15" class="node">
<title>_275739152</title>
<polygon fill="white" stroke="black" points="2283.5,-598 1844.5,-598 1844.5,-485 2283.5,-485 2283.5,-598"/>
<text text-anchor="start" x="1852.5" y="-582.8" font-family="Times,serif" font-size="14.00">i30 = inlined zz8operatorz0zI_sz9() [Comment]</text>
<text text-anchor="start" x="1852.5" y="-567.8" font-family="Times,serif" font-size="14.00">i31 = @signed_bv(i7, MachineIntConstant(64)) [Operation]</text>
<text text-anchor="start" x="1852.5" y="-552.8" font-family="Times,serif" font-size="14.00">i32 = @signed_bv(i9, MachineIntConstant(64)) [Operation]</text>
<text text-anchor="start" x="1852.5" y="-537.8" font-family="Times,serif" font-size="14.00">i33 = @lt(i31, i32) [Operation]</text>
<text text-anchor="start" x="1852.5" y="-522.8" font-family="Times,serif" font-size="14.00">i34 = inlined zbool_to_bits() [Comment]</text>
<text text-anchor="start" x="1852.5" y="-507.8" font-family="Times,serif" font-size="14.00">i35 = inlined zbool_bits_forwards() [Comment]</text>
<text text-anchor="middle" x="2064" y="-492.8" font-family="Times,serif" font-size="14.00">goto if i33</text>
</g>
<!-- _275739096&#45;&gt;_275739152 -->
<g id="edge21" class="edge">
<title>_275739096&#45;&gt;_275739152</title>
<path fill="none" stroke="black" stroke-dasharray="5,2" d="M1924.5,-671.91C1942.46,-655.25 1970.19,-629.52 1996.22,-605.38"/>
<polygon fill="black" stroke="black" points="1998.91,-607.66 2003.86,-598.29 1994.15,-602.52 1998.91,-607.66"/>
<text text-anchor="middle" x="2002" y="-631.3" font-family="Times,serif" font-size="14.00">True</text>
</g>
<!-- _275739432 -->
<g id="node5" class="node">
<title>_275739432</title>
<polygon fill="white" stroke="black" points="1341.5,-411.5 124.5,-411.5 124.5,-373.5 1341.5,-373.5 1341.5,-411.5"/>
<text text-anchor="start" x="132.5" y="-396.3" font-family="Times,serif" font-size="14.00">i13 = @eq(EnumConstant(&#39;zRISCV_ANDI&#39;, Enum(&#39;ziop&#39;, (&#39;zRISCV_ADDI&#39;, &#39;zRISCV_SLTI&#39;, &#39;zRISCV_SLTIU&#39;, &#39;zRISCV_XORI&#39;, &#39;zRISCV_ORI&#39;, &#39;zRISCV_ANDI&#39;))), i4) [Operation]</text>
<text text-anchor="middle" x="733" y="-381.3" font-family="Times,serif" font-size="14.00">goto if i13</text>
</g>
<!-- _275739264&#45;&gt;_275739432 -->
<g id="edge8" class="edge">
<title>_275739264&#45;&gt;_275739432</title>
<path fill="none" stroke="black" stroke-dasharray="5,2" d="M1155.9,-522.47C1066.43,-495.19 897,-443.52 802.01,-414.55"/>
<polygon fill="black" stroke="black" points="802.79,-411.13 792.21,-411.56 800.75,-417.82 802.79,-411.13"/>
<text text-anchor="middle" x="993" y="-455.8" font-family="Times,serif" font-size="14.00">False</text>
</g>
<!-- _275739376 -->
<g id="node11" class="node">
<title>_275739376</title>
<polygon fill="white" stroke="black" points="1714.5,-434 1359.5,-434 1359.5,-351 1714.5,-351 1714.5,-434"/>
<text text-anchor="start" x="1367.5" y="-418.8" font-family="Times,serif" font-size="14.00">i25 = inlined zz8operatorz0zI_uz9() [Comment]</text>
<text text-anchor="start" x="1367.5" y="-403.8" font-family="Times,serif" font-size="14.00">i26 = @lt_unsigned64(i7, i9) [Operation]</text>
<text text-anchor="start" x="1367.5" y="-388.8" font-family="Times,serif" font-size="14.00">i27 = inlined zbool_to_bits() [Comment]</text>
<text text-anchor="start" x="1367.5" y="-373.8" font-family="Times,serif" font-size="14.00">i28 = inlined zbool_bits_forwards() [Comment]</text>
<text text-anchor="middle" x="1537" y="-358.8" font-family="Times,serif" font-size="14.00">goto if i26</text>
</g>
<!-- _275739264&#45;&gt;_275739376 -->
<g id="edge14" class="edge">
<title>_275739264&#45;&gt;_275739376</title>
<path fill="none" stroke="black" stroke-dasharray="5,2" d="M1254.48,-522.47C1300.09,-501.66 1376.79,-466.64 1438.78,-438.34"/>
<polygon fill="black" stroke="black" points="1440.56,-441.38 1448.2,-434.04 1437.65,-435.01 1440.56,-441.38"/>
<text text-anchor="middle" x="1422" y="-455.8" font-family="Times,serif" font-size="14.00">True</text>
</g>
<!-- _275739600 -->
<g id="node6" class="node">
<title>_275739600</title>
<polygon fill="white" stroke="black" points="1206,-292.5 0,-292.5 0,-254.5 1206,-254.5 1206,-292.5"/>
<text text-anchor="start" x="8" y="-277.3" font-family="Times,serif" font-size="14.00">i14 = @eq(EnumConstant(&#39;zRISCV_ORI&#39;, Enum(&#39;ziop&#39;, (&#39;zRISCV_ADDI&#39;, &#39;zRISCV_SLTI&#39;, &#39;zRISCV_SLTIU&#39;, &#39;zRISCV_XORI&#39;, &#39;zRISCV_ORI&#39;, &#39;zRISCV_ANDI&#39;))), i4) [Operation]</text>
<text text-anchor="middle" x="603" y="-262.3" font-family="Times,serif" font-size="14.00">goto if i14</text>
</g>
<!-- _275739432&#45;&gt;_275739600 -->
<g id="edge5" class="edge">
<title>_275739432&#45;&gt;_275739600</title>
<path fill="none" stroke="black" stroke-dasharray="5,2" d="M712.97,-373.48C690.99,-353.69 655.56,-321.8 630.87,-299.58"/>
<polygon fill="black" stroke="black" points="633.04,-296.83 623.26,-292.74 628.36,-302.03 633.04,-296.83"/>
<text text-anchor="middle" x="687" y="-321.8" font-family="Times,serif" font-size="14.00">False</text>
</g>
<!-- _275739488 -->
<g id="node10" class="node">
<title>_275739488</title>
<polygon fill="white" stroke="black" points="1325,-229 1013,-229 1013,-191 1325,-191 1325,-229"/>
<text text-anchor="start" x="1021" y="-213.8" font-family="Times,serif" font-size="14.00">i20 = @and_vec_bv_bv(i7, i9) [Operation]</text>
<text text-anchor="middle" x="1169" y="-198.8" font-family="Times,serif" font-size="14.00">goto</text>
</g>
<!-- _275739432&#45;&gt;_275739488 -->
<g id="edge7" class="edge">
<title>_275739432&#45;&gt;_275739488</title>
<path fill="none" stroke="black" stroke-dasharray="5,2" d="M979.52,-373.47C1081.57,-360.4 1183.49,-338.05 1215,-300 1230.02,-281.86 1225.32,-268.18 1215,-247 1213.1,-243.1 1210.55,-239.5 1207.63,-236.21"/>
<polygon fill="black" stroke="black" points="1209.87,-233.51 1200.24,-229.09 1205.01,-238.55 1209.87,-233.51"/>
<text text-anchor="middle" x="1208" y="-321.8" font-family="Times,serif" font-size="14.00">True</text>
</g>
<!-- _275739992 -->
<g id="node7" class="node">
<title>_275739992</title>
<polygon fill="white" stroke="black" points="757.5,-165.5 448.5,-165.5 448.5,-127.5 757.5,-127.5 757.5,-165.5"/>
<text text-anchor="start" x="456.5" y="-150.3" font-family="Times,serif" font-size="14.00">i15 = @xor_vec_bv_bv(i7, i9) [Operation]</text>
<text text-anchor="middle" x="603" y="-135.3" font-family="Times,serif" font-size="14.00">goto</text>
</g>
<!-- _275739600&#45;&gt;_275739992 -->
<g id="edge2" class="edge">
<title>_275739600&#45;&gt;_275739992</title>
<path fill="none" stroke="black" stroke-dasharray="5,2" d="M603,-254.32C603,-233.77 603,-200.05 603,-175.99"/>
<polygon fill="black" stroke="black" points="606.5,-175.7 603,-165.7 599.5,-175.7 606.5,-175.7"/>
<text text-anchor="middle" x="622" y="-206.3" font-family="Times,serif" font-size="14.00">False</text>
</g>
<!-- _275739712 -->
<g id="node9" class="node">
<title>_275739712</title>
<polygon fill="white" stroke="black" points="1076.5,-165.5 775.5,-165.5 775.5,-127.5 1076.5,-127.5 1076.5,-165.5"/>
<text text-anchor="start" x="783.5" y="-150.3" font-family="Times,serif" font-size="14.00">i21 = @or_vec_bv_bv(i7, i9) [Operation]</text>
<text text-anchor="middle" x="926" y="-135.3" font-family="Times,serif" font-size="14.00">goto</text>
</g>
<!-- _275739600&#45;&gt;_275739712 -->
<g id="edge4" class="edge">
<title>_275739600&#45;&gt;_275739712</title>
<path fill="none" stroke="black" stroke-dasharray="5,2" d="M649.62,-254.46C707.83,-231.93 807.32,-193.43 869.71,-169.28"/>
<polygon fill="black" stroke="black" points="871.33,-172.41 879.39,-165.54 868.8,-165.88 871.33,-172.41"/>
<text text-anchor="middle" x="830" y="-206.3" font-family="Times,serif" font-size="14.00">True</text>
</g>
<!-- _275738872 -->
<g id="node8" class="node">
<title>_275738872</title>
<polygon fill="yellow" stroke="black" points="1634.5,-83 825.5,-83 825.5,0 1634.5,0 1634.5,-83"/>
<text text-anchor="start" x="833.5" y="-67.8" font-family="Times,serif" font-size="14.00">i16 = phi [i17, i18, i19, i20, i21, i15]</text>
<text text-anchor="start" x="833.5" y="-52.8" font-family="Times,serif" font-size="14.00">i22 = inlined zwX_bits() [Comment]</text>
<text text-anchor="start" x="833.5" y="-37.8" font-family="Times,serif" font-size="14.00">i23 = @unsigned_bv(i3, MachineIntConstant(5)) [Operation]</text>
<text text-anchor="start" x="833.5" y="-22.8" font-family="Times,serif" font-size="14.00">i24 = zwX(i23, i16) [Operation]</text>
<text text-anchor="middle" x="1230" y="-7.8" font-family="Times,serif" font-size="14.00">Return(EnumConstant(&#39;zRETIRE_SUCCESS&#39;, Enum(&#39;zRetired&#39;, (&#39;zRETIRE_SUCCESS&#39;, &#39;zRETIRE_FAIL&#39;))), None)</text>
</g>
<!-- _275739992&#45;&gt;_275738872 -->
<g id="edge1" class="edge">
<title>_275739992&#45;&gt;_275738872</title>
<path fill="none" stroke="black" stroke-dasharray="5,2" d="M712.57,-127.5C784.72,-115.65 882.31,-99.62 973.3,-84.67"/>
<polygon fill="black" stroke="black" points="973.91,-88.12 983.22,-83.04 972.78,-81.21 973.91,-88.12"/>
</g>
<!-- _275739712&#45;&gt;_275738872 -->
<g id="edge3" class="edge">
<title>_275739712&#45;&gt;_275738872</title>
<path fill="none" stroke="black" stroke-dasharray="5,2" d="M979.3,-127.44C1012.94,-116.04 1057.95,-100.79 1100.54,-86.36"/>
<polygon fill="black" stroke="black" points="1101.81,-89.63 1110.15,-83.11 1099.56,-83 1101.81,-89.63"/>
</g>
<!-- _275739488&#45;&gt;_275738872 -->
<g id="edge6" class="edge">
<title>_275739488&#45;&gt;_275738872</title>
<path fill="none" stroke="black" stroke-dasharray="5,2" d="M1137.76,-190.91C1131.8,-185.92 1126.38,-179.93 1123,-173 1112.68,-151.82 1112.29,-140.98 1123,-120 1128.76,-108.72 1137.02,-98.69 1146.42,-89.91"/>
<polygon fill="black" stroke="black" points="1148.95,-92.35 1154.19,-83.14 1144.35,-87.08 1148.95,-92.35"/>
</g>
<!-- _247178536 -->
<g id="node12" class="node">
<title>_247178536</title>
<polygon fill="white" stroke="black" points="1529,-291.5 1475,-291.5 1475,-255.5 1529,-255.5 1529,-291.5"/>
<text text-anchor="middle" x="1502" y="-269.8" font-family="Times,serif" font-size="14.00">goto</text>
</g>
<!-- _275739376&#45;&gt;_247178536 -->
<g id="edge11" class="edge">
<title>_275739376&#45;&gt;_247178536</title>
<path fill="none" stroke="black" stroke-dasharray="5,2" d="M1515.52,-350.94C1513.01,-345.04 1510.73,-338.95 1509,-333 1506.11,-323.05 1504.41,-311.8 1503.41,-301.86"/>
<polygon fill="black" stroke="black" points="1506.88,-301.37 1502.58,-291.69 1499.91,-301.94 1506.88,-301.37"/>
<text text-anchor="middle" x="1528" y="-321.8" font-family="Times,serif" font-size="14.00">False</text>
</g>
<!-- _247178144 -->
<g id="node14" class="node">
<title>_247178144</title>
<polygon fill="white" stroke="black" points="1601,-291.5 1547,-291.5 1547,-255.5 1601,-255.5 1601,-291.5"/>
<text text-anchor="middle" x="1574" y="-269.8" font-family="Times,serif" font-size="14.00">goto</text>
</g>
<!-- _275739376&#45;&gt;_247178144 -->
<g id="edge13" class="edge">
<title>_275739376&#45;&gt;_247178144</title>
<path fill="none" stroke="black" stroke-dasharray="5,2" d="M1549.84,-350.91C1555.01,-334.55 1560.84,-316.12 1565.47,-301.47"/>
<polygon fill="black" stroke="black" points="1568.93,-302.13 1568.61,-291.54 1562.26,-300.02 1568.93,-302.13"/>
<text text-anchor="middle" x="1577" y="-321.8" font-family="Times,serif" font-size="14.00">True</text>
</g>
<!-- _247178200 -->
<g id="node13" class="node">
<title>_247178200</title>
<polygon fill="white" stroke="black" points="2025.5,-173 1132.5,-173 1132.5,-120 2025.5,-120 2025.5,-173"/>
<text text-anchor="start" x="1140.5" y="-157.8" font-family="Times,serif" font-size="14.00">i19 = phi [SmallBitVectorConstant(0x1, SmallFixedBitVector(64)), SmallBitVectorConstant(0x0, SmallFixedBitVector(64))]</text>
<text text-anchor="start" x="1140.5" y="-142.8" font-family="Times,serif" font-size="14.00">i29 = inlined zzzero_extend() [Comment]</text>
<text text-anchor="middle" x="1579" y="-127.8" font-family="Times,serif" font-size="14.00">goto</text>
</g>
<!-- _247178536&#45;&gt;_247178200 -->
<g id="edge10" class="edge">
<title>_247178536&#45;&gt;_247178200</title>
<path fill="none" stroke="black" stroke-dasharray="5,2" d="M1512.55,-255.38C1524.16,-236.53 1543.14,-205.72 1557.85,-181.84"/>
<polygon fill="black" stroke="black" points="1560.98,-183.42 1563.25,-173.07 1555.02,-179.75 1560.98,-183.42"/>
</g>
<!-- _247178200&#45;&gt;_275738872 -->
<g id="edge9" class="edge">
<title>_247178200&#45;&gt;_275738872</title>
<path fill="none" stroke="black" stroke-dasharray="5,2" d="M1492.28,-119.91C1457.48,-109.64 1416.38,-97.51 1377.17,-85.93"/>
<polygon fill="black" stroke="black" points="1377.83,-82.48 1367.24,-83 1375.84,-89.19 1377.83,-82.48"/>
</g>
<!-- _247178144&#45;&gt;_247178200 -->
<g id="edge12" class="edge">
<title>_247178144&#45;&gt;_247178200</title>
<path fill="none" stroke="black" stroke-dasharray="5,2" d="M1574.68,-255.38C1575.43,-236.86 1576.63,-206.8 1577.58,-183.11"/>
<polygon fill="black" stroke="black" points="1581.07,-183.2 1577.98,-173.07 1574.08,-182.92 1581.07,-183.2"/>
</g>
<!-- _272712160 -->
<g id="node16" class="node">
<title>_272712160</title>
<polygon fill="white" stroke="black" points="2056,-410.5 2002,-410.5 2002,-374.5 2056,-374.5 2056,-410.5"/>
<text text-anchor="middle" x="2029" y="-388.8" font-family="Times,serif" font-size="14.00">goto</text>
</g>
<!-- _275739152&#45;&gt;_272712160 -->
<g id="edge18" class="edge">
<title>_275739152&#45;&gt;_272712160</title>
<path fill="none" stroke="black" stroke-dasharray="5,2" d="M2041.01,-484.8C2039.09,-478.86 2037.37,-472.85 2036,-467 2032.5,-452.03 2030.75,-434.95 2029.87,-421.03"/>
<polygon fill="black" stroke="black" points="2033.34,-420.45 2029.33,-410.64 2026.35,-420.81 2033.34,-420.45"/>
<text text-anchor="middle" x="2055" y="-455.8" font-family="Times,serif" font-size="14.00">False</text>
</g>
<!-- _272734368 -->
<g id="node18" class="node">
<title>_272734368</title>
<polygon fill="white" stroke="black" points="2128,-410.5 2074,-410.5 2074,-374.5 2128,-374.5 2128,-410.5"/>
<text text-anchor="middle" x="2101" y="-388.8" font-family="Times,serif" font-size="14.00">goto</text>
</g>
<!-- _275739152&#45;&gt;_272734368 -->
<g id="edge20" class="edge">
<title>_275739152&#45;&gt;_272734368</title>
<path fill="none" stroke="black" stroke-dasharray="5,2" d="M2077.99,-484.93C2083.53,-462.9 2089.65,-438.6 2094.18,-420.59"/>
<polygon fill="black" stroke="black" points="2097.61,-421.32 2096.65,-410.77 2090.82,-419.62 2097.61,-421.32"/>
<text text-anchor="middle" x="2103" y="-455.8" font-family="Times,serif" font-size="14.00">True</text>
</g>
<!-- _272734480 -->
<g id="node17" class="node">
<title>_272734480</title>
<polygon fill="white" stroke="black" points="2511.5,-300 1618.5,-300 1618.5,-247 2511.5,-247 2511.5,-300"/>
<text text-anchor="start" x="1626.5" y="-284.8" font-family="Times,serif" font-size="14.00">i18 = phi [SmallBitVectorConstant(0x1, SmallFixedBitVector(64)), SmallBitVectorConstant(0x0, SmallFixedBitVector(64))]</text>
<text text-anchor="start" x="1626.5" y="-269.8" font-family="Times,serif" font-size="14.00">i36 = inlined zzzero_extend() [Comment]</text>
<text text-anchor="middle" x="2065" y="-254.8" font-family="Times,serif" font-size="14.00">goto</text>
</g>
<!-- _272712160&#45;&gt;_272734480 -->
<g id="edge17" class="edge">
<title>_272712160&#45;&gt;_272734480</title>
<path fill="none" stroke="black" stroke-dasharray="5,2" d="M2034.23,-374.49C2039.42,-357.64 2047.52,-331.32 2054.1,-309.92"/>
<polygon fill="black" stroke="black" points="2057.5,-310.76 2057.1,-300.17 2050.81,-308.7 2057.5,-310.76"/>
</g>
<!-- _272734480&#45;&gt;_275738872 -->
<g id="edge16" class="edge">
<title>_272734480&#45;&gt;_275738872</title>
<path fill="none" stroke="black" stroke-dasharray="5,2" d="M2068.14,-246.75C2070.74,-212.31 2069.43,-151.91 2034,-120 2002.84,-91.94 1825.28,-73.18 1644.92,-61.16"/>
<polygon fill="black" stroke="black" points="1644.9,-57.65 1634.69,-60.48 1644.44,-64.63 1644.9,-57.65"/>
</g>
<!-- _272734368&#45;&gt;_272734480 -->
<g id="edge19" class="edge">
<title>_272734368&#45;&gt;_272734480</title>
<path fill="none" stroke="black" stroke-dasharray="5,2" d="M2095.77,-374.49C2090.58,-357.64 2082.48,-331.32 2075.9,-309.92"/>
<polygon fill="black" stroke="black" points="2079.19,-308.7 2072.9,-300.17 2072.5,-310.76 2079.19,-308.7"/>
</g>
<!-- _275738760&#45;&gt;_275738872 -->
<g id="edge23" class="edge">
<title>_275738760&#45;&gt;_275738872</title>
<path fill="none" stroke="black" stroke-dasharray="5,2" d="M2539,-615.77C2539,-584.15 2539,-517.13 2539,-460.5 2539,-460.5 2539,-460.5 2539,-145.5 2539,-99.94 2028.34,-71.11 1644.93,-55.89"/>
<polygon fill="black" stroke="black" points="1644.89,-52.38 1634.76,-55.48 1644.62,-59.38 1644.89,-52.38"/>
</g>
</g>
</svg>
