<?xml version="1.0" encoding="UTF-8" standalone="no"?>
<!DOCTYPE svg PUBLIC "-//W3C//DTD SVG 1.1//EN"
 "http://www.w3.org/Graphics/SVG/1.1/DTD/svg11.dtd">
<!-- Generated by graphviz version 2.43.0 (0)
 -->
<!-- Title: _G Pages: 1 -->
<svg width="2603pt" height="1664pt"
 viewBox="0.00 0.00 2602.50 1664.00" xmlns="http://www.w3.org/2000/svg" xmlns:xlink="http://www.w3.org/1999/xlink">
<g id="graph0" class="graph" transform="scale(1 1) rotate(0) translate(4 1660)">
<title>_G</title>
<polygon fill="white" stroke="transparent" points="-4,4 -4,-1660 2598.5,-1660 2598.5,4 -4,4"/>
<!-- _graphzexecute__zITYPE -->
<g id="node1" class="node">
<title>_graphzexecute__zITYPE</title>
<polygon fill="green" stroke="black" points="681.5,-1656 544.5,-1656 544.5,-1618 681.5,-1618 681.5,-1656"/>
<text text-anchor="start" x="552.5" y="-1640.8" font-family="Times,serif" font-size="14.00">zexecute_zITYPE</text>
<text text-anchor="middle" x="613" y="-1625.8" font-family="Times,serif" font-size="14.00">[zmergez3var]</text>
</g>
<!-- _275738704 -->
<g id="node2" class="node">
<title>_275738704</title>
<polygon fill="white" stroke="black" points="640,-1581 586,-1581 586,-1545 640,-1545 640,-1581"/>
<text text-anchor="middle" x="613" y="-1559.3" font-family="Times,serif" font-size="14.00">goto</text>
</g>
<!-- _graphzexecute__zITYPE&#45;&gt;_275738704 -->
<g id="edge22" class="edge">
<title>_graphzexecute__zITYPE&#45;&gt;_275738704</title>
<path fill="none" stroke="black" stroke-dasharray="5,2" d="M613,-1617.83C613,-1609.89 613,-1600.41 613,-1591.63"/>
<polygon fill="black" stroke="black" points="616.5,-1591.42 613,-1581.42 609.5,-1591.42 616.5,-1591.42"/>
</g>
<!-- _275736744 -->
<g id="node3" class="node">
<title>_275736744</title>
<polygon fill="white" stroke="black" points="1226,-1508 0,-1508 0,-1275 1226,-1275 1226,-1508"/>
<text text-anchor="start" x="8" y="-1492.8" font-family="Times,serif" font-size="14.00">i0 = zITYPE(zmergez3var) [UnionCast]</text>
<text text-anchor="start" x="8" y="-1477.8" font-family="Times,serif" font-size="14.00">i1 = ztuplez3z5bv12_z5bv5_z5bv5_z5enumz0zziop0(i0) [FieldAccess]</text>
<text text-anchor="start" x="8" y="-1462.8" font-family="Times,serif" font-size="14.00">i2 = zITYPE(zmergez3var) [UnionCast]</text>
<text text-anchor="start" x="8" y="-1447.8" font-family="Times,serif" font-size="14.00">i3 = ztuplez3z5bv12_z5bv5_z5bv5_z5enumz0zziop1(i2) [FieldAccess]</text>
<text text-anchor="start" x="8" y="-1432.8" font-family="Times,serif" font-size="14.00">i4 = zITYPE(zmergez3var) [UnionCast]</text>
<text text-anchor="start" x="8" y="-1417.8" font-family="Times,serif" font-size="14.00">i5 = ztuplez3z5bv12_z5bv5_z5bv5_z5enumz0zziop2(i4) [FieldAccess]</text>
<text text-anchor="start" x="8" y="-1402.8" font-family="Times,serif" font-size="14.00">i6 = zITYPE(zmergez3var) [UnionCast]</text>
<text text-anchor="start" x="8" y="-1387.8" font-family="Times,serif" font-size="14.00">i7 = ztuplez3z5bv12_z5bv5_z5bv5_z5enumz0zziop3(i6) [FieldAccess]</text>
<text text-anchor="start" x="8" y="-1372.8" font-family="Times,serif" font-size="14.00">i8 = zrX_bits(i3) [Operation]</text>
<text text-anchor="start" x="8" y="-1357.8" font-family="Times,serif" font-size="14.00">i9 = zz5i64zDzKz5i(MachineIntConstant(64)) [Operation]</text>
<text text-anchor="start" x="8" y="-1342.8" font-family="Times,serif" font-size="14.00">i10 = $cast(i1) [Cast]</text>
<text text-anchor="start" x="8" y="-1327.8" font-family="Times,serif" font-size="14.00">i11 = zsign_extend(i9, i10) [Operation]</text>
<text text-anchor="start" x="8" y="-1312.8" font-family="Times,serif" font-size="14.00">i12 = $cast(i11) [Cast]</text>
<text text-anchor="start" x="8" y="-1297.8" font-family="Times,serif" font-size="14.00">i13 = @neq(EnumConstant(&#39;zRISCV_ADDI&#39;, Enum(&#39;ziop&#39;, (&#39;zRISCV_ADDI&#39;, &#39;zRISCV_SLTI&#39;, &#39;zRISCV_SLTIU&#39;, &#39;zRISCV_XORI&#39;, &#39;zRISCV_ORI&#39;, &#39;zRISCV_ANDI&#39;))), i7) [Operation]</text>
<text text-anchor="middle" x="613" y="-1282.8" font-family="Times,serif" font-size="14.00">goto if i13</text>
</g>
<!-- _275738704&#45;&gt;_275736744 -->
<g id="edge21" class="edge">
<title>_275738704&#45;&gt;_275736744</title>
<path fill="none" stroke="black" stroke-dasharray="5,2" d="M613,-1544.81C613,-1537.54 613,-1528.39 613,-1518.2"/>
<polygon fill="black" stroke="black" points="616.5,-1518.13 613,-1508.13 609.5,-1518.13 616.5,-1518.13"/>
</g>
<!-- _275738760 -->
<g id="node4" class="node">
<title>_275738760</title>
<polygon fill="white" stroke="black" points="722,-1168 444,-1168 444,-1085 722,-1085 722,-1168"/>
<text text-anchor="start" x="452" y="-1152.8" font-family="Times,serif" font-size="14.00">i14 = $cast(i8) [Cast]</text>
<text text-anchor="start" x="452" y="-1137.8" font-family="Times,serif" font-size="14.00">i15 = $cast(i12) [Cast]</text>
<text text-anchor="start" x="452" y="-1122.8" font-family="Times,serif" font-size="14.00">i16 = zadd_bits(i14, i15) [Operation]</text>
<text text-anchor="start" x="452" y="-1107.8" font-family="Times,serif" font-size="14.00">i17 = $cast(i16) [Cast]</text>
<text text-anchor="middle" x="583" y="-1092.8" font-family="Times,serif" font-size="14.00">goto</text>
</g>
<!-- _275736744&#45;&gt;_275738760 -->
<g id="edge4" class="edge">
<title>_275736744&#45;&gt;_275738760</title>
<path fill="none" stroke="black" stroke-dasharray="5,2" d="M599.8,-1274.76C595.95,-1241.03 591.94,-1205.9 588.81,-1178.42"/>
<polygon fill="black" stroke="black" points="592.26,-1177.81 587.65,-1168.28 585.31,-1178.61 592.26,-1177.81"/>
<text text-anchor="middle" x="617" y="-1245.8" font-family="Times,serif" font-size="14.00">False</text>
</g>
<!-- _275739096 -->
<g id="node8" class="node">
<title>_275739096</title>
<polygon fill="white" stroke="black" points="1831,-1224 611,-1224 611,-1186 1831,-1186 1831,-1224"/>
<text text-anchor="start" x="619" y="-1208.8" font-family="Times,serif" font-size="14.00">i25 = @neq(EnumConstant(&#39;zRISCV_SLTI&#39;, Enum(&#39;ziop&#39;, (&#39;zRISCV_ADDI&#39;, &#39;zRISCV_SLTI&#39;, &#39;zRISCV_SLTIU&#39;, &#39;zRISCV_XORI&#39;, &#39;zRISCV_ORI&#39;, &#39;zRISCV_ANDI&#39;))), i7) [Operation]</text>
<text text-anchor="middle" x="1221" y="-1193.8" font-family="Times,serif" font-size="14.00">goto if i25</text>
</g>
<!-- _275736744&#45;&gt;_275739096 -->
<g id="edge20" class="edge">
<title>_275736744&#45;&gt;_275739096</title>
<path fill="none" stroke="black" stroke-dasharray="5,2" d="M993.74,-1274.96C1054.22,-1256.61 1110.37,-1239.57 1151.72,-1227.02"/>
<polygon fill="black" stroke="black" points="1152.83,-1230.35 1161.38,-1224.09 1150.79,-1223.65 1152.83,-1230.35"/>
<text text-anchor="middle" x="1107" y="-1245.8" font-family="Times,serif" font-size="14.00">True</text>
</g>
<!-- _275738872 -->
<g id="node5" class="node">
<title>_275738872</title>
<polygon fill="white" stroke="black" points="1242,-199 964,-199 964,-146 1242,-146 1242,-199"/>
<text text-anchor="start" x="972" y="-183.8" font-family="Times,serif" font-size="14.00">i18 = phi [i17, i19, i20, i21, i22, i23]</text>
<text text-anchor="start" x="972" y="-168.8" font-family="Times,serif" font-size="14.00">i24 = zwX_bits(i5, i18) [Operation]</text>
<text text-anchor="middle" x="1103" y="-153.8" font-family="Times,serif" font-size="14.00">goto</text>
</g>
<!-- _275738760&#45;&gt;_275738872 -->
<g id="edge3" class="edge">
<title>_275738760&#45;&gt;_275738872</title>
<path fill="none" stroke="black" stroke-dasharray="5,2" d="M583,-1084.72C583,-1047.23 583,-990.12 583,-940.5 583,-940.5 583,-940.5 583,-276.5 583,-200.35 800.31,-179.61 953.97,-174.46"/>
<polygon fill="black" stroke="black" points="954.11,-177.96 963.99,-174.15 953.89,-170.96 954.11,-177.96"/>
</g>
<!-- _275738928 -->
<g id="node6" class="node">
<title>_275738928</title>
<polygon fill="white" stroke="black" points="1130,-109 1076,-109 1076,-73 1130,-73 1130,-109"/>
<text text-anchor="middle" x="1103" y="-87.3" font-family="Times,serif" font-size="14.00">goto</text>
</g>
<!-- _275738872&#45;&gt;_275738928 -->
<g id="edge2" class="edge">
<title>_275738872&#45;&gt;_275738928</title>
<path fill="none" stroke="black" stroke-dasharray="5,2" d="M1103,-145.91C1103,-137.48 1103,-128.08 1103,-119.52"/>
<polygon fill="black" stroke="black" points="1106.5,-119.26 1103,-109.26 1099.5,-119.26 1106.5,-119.26"/>
</g>
<!-- _275738984 -->
<g id="node7" class="node">
<title>_275738984</title>
<polygon fill="yellow" stroke="black" points="1507.5,-36 698.5,-36 698.5,0 1507.5,0 1507.5,-36"/>
<text text-anchor="middle" x="1103" y="-14.3" font-family="Times,serif" font-size="14.00">Return(EnumConstant(&#39;zRETIRE_SUCCESS&#39;, Enum(&#39;zRetired&#39;, (&#39;zRETIRE_SUCCESS&#39;, &#39;zRETIRE_FAIL&#39;))), None)</text>
</g>
<!-- _275738928&#45;&gt;_275738984 -->
<g id="edge1" class="edge">
<title>_275738928&#45;&gt;_275738984</title>
<path fill="none" stroke="black" stroke-dasharray="5,2" d="M1103,-72.81C1103,-64.79 1103,-55.05 1103,-46.07"/>
<polygon fill="black" stroke="black" points="1106.5,-46.03 1103,-36.03 1099.5,-46.03 1106.5,-46.03"/>
</g>
<!-- _275739152 -->
<g id="node9" class="node">
<title>_275739152</title>
<polygon fill="white" stroke="black" points="1032.5,-1011 597.5,-1011 597.5,-868 1032.5,-868 1032.5,-1011"/>
<text text-anchor="start" x="605.5" y="-995.8" font-family="Times,serif" font-size="14.00">i26 = $cast(i8) [Cast]</text>
<text text-anchor="start" x="605.5" y="-980.8" font-family="Times,serif" font-size="14.00">i27 = $cast(i12) [Cast]</text>
<text text-anchor="start" x="605.5" y="-965.8" font-family="Times,serif" font-size="14.00">i28 = zz8operatorz0zI_sz9(i26, i27) [Operation]</text>
<text text-anchor="start" x="605.5" y="-950.8" font-family="Times,serif" font-size="14.00">i29 = zbool_to_bits(i28) [Operation]</text>
<text text-anchor="start" x="605.5" y="-935.8" font-family="Times,serif" font-size="14.00">i30 = zz5i64zDzKz5i(MachineIntConstant(64)) [Operation]</text>
<text text-anchor="start" x="605.5" y="-920.8" font-family="Times,serif" font-size="14.00">i31 = $cast(i29) [Cast]</text>
<text text-anchor="start" x="605.5" y="-905.8" font-family="Times,serif" font-size="14.00">i32 = zzzero_extend(i30, i31) [Operation]</text>
<text text-anchor="start" x="605.5" y="-890.8" font-family="Times,serif" font-size="14.00">i19 = $cast(i32) [Cast]</text>
<text text-anchor="middle" x="815" y="-875.8" font-family="Times,serif" font-size="14.00">goto</text>
</g>
<!-- _275739096&#45;&gt;_275739152 -->
<g id="edge6" class="edge">
<title>_275739096&#45;&gt;_275739152</title>
<path fill="none" stroke="black" stroke-dasharray="5,2" d="M1059.88,-1185.93C980.19,-1168.47 889.45,-1134.21 834,-1067 823.41,-1054.16 817.39,-1038 814.17,-1021.56"/>
<polygon fill="black" stroke="black" points="817.57,-1020.63 812.52,-1011.31 810.66,-1021.74 817.57,-1020.63"/>
<text text-anchor="middle" x="1010" y="-1122.8" font-family="Times,serif" font-size="14.00">False</text>
</g>
<!-- _275739264 -->
<g id="node10" class="node">
<title>_275739264</title>
<polygon fill="white" stroke="black" points="2075,-1067 843,-1067 843,-1029 2075,-1029 2075,-1067"/>
<text text-anchor="start" x="851" y="-1051.8" font-family="Times,serif" font-size="14.00">i33 = @neq(EnumConstant(&#39;zRISCV_SLTIU&#39;, Enum(&#39;ziop&#39;, (&#39;zRISCV_ADDI&#39;, &#39;zRISCV_SLTI&#39;, &#39;zRISCV_SLTIU&#39;, &#39;zRISCV_XORI&#39;, &#39;zRISCV_ORI&#39;, &#39;zRISCV_ANDI&#39;))), i7) [Operation]</text>
<text text-anchor="middle" x="1459" y="-1036.8" font-family="Times,serif" font-size="14.00">goto if i33</text>
</g>
<!-- _275739096&#45;&gt;_275739264 -->
<g id="edge19" class="edge">
<title>_275739096&#45;&gt;_275739264</title>
<path fill="none" stroke="black" stroke-dasharray="5,2" d="M1248.77,-1185.92C1291.82,-1157.87 1374.71,-1103.9 1422.54,-1072.75"/>
<polygon fill="black" stroke="black" points="1424.57,-1075.6 1431.04,-1067.21 1420.75,-1069.73 1424.57,-1075.6"/>
<text text-anchor="middle" x="1418" y="-1122.8" font-family="Times,serif" font-size="14.00">True</text>
</g>
<!-- _275739152&#45;&gt;_275738872 -->
<g id="edge5" class="edge">
<title>_275739152&#45;&gt;_275738872</title>
<path fill="none" stroke="black" stroke-dasharray="5,2" d="M815,-867.81C815,-825.87 815,-771.65 815,-723.5 815,-723.5 815,-723.5 815,-276.5 815,-243.34 883.53,-218.03 953.73,-200.79"/>
<polygon fill="black" stroke="black" points="954.73,-204.15 963.64,-198.41 953.1,-197.34 954.73,-204.15"/>
</g>
<!-- _275739376 -->
<g id="node11" class="node">
<title>_275739376</title>
<polygon fill="white" stroke="black" points="1264.5,-794 829.5,-794 829.5,-651 1264.5,-651 1264.5,-794"/>
<text text-anchor="start" x="837.5" y="-778.8" font-family="Times,serif" font-size="14.00">i34 = $cast(i8) [Cast]</text>
<text text-anchor="start" x="837.5" y="-763.8" font-family="Times,serif" font-size="14.00">i35 = $cast(i12) [Cast]</text>
<text text-anchor="start" x="837.5" y="-748.8" font-family="Times,serif" font-size="14.00">i36 = zz8operatorz0zI_uz9(i34, i35) [Operation]</text>
<text text-anchor="start" x="837.5" y="-733.8" font-family="Times,serif" font-size="14.00">i37 = zbool_to_bits(i36) [Operation]</text>
<text text-anchor="start" x="837.5" y="-718.8" font-family="Times,serif" font-size="14.00">i38 = zz5i64zDzKz5i(MachineIntConstant(64)) [Operation]</text>
<text text-anchor="start" x="837.5" y="-703.8" font-family="Times,serif" font-size="14.00">i39 = $cast(i37) [Cast]</text>
<text text-anchor="start" x="837.5" y="-688.8" font-family="Times,serif" font-size="14.00">i40 = zzzero_extend(i38, i39) [Operation]</text>
<text text-anchor="start" x="837.5" y="-673.8" font-family="Times,serif" font-size="14.00">i20 = $cast(i40) [Cast]</text>
<text text-anchor="middle" x="1047" y="-658.8" font-family="Times,serif" font-size="14.00">goto</text>
</g>
<!-- _275739264&#45;&gt;_275739376 -->
<g id="edge8" class="edge">
<title>_275739264&#45;&gt;_275739376</title>
<path fill="none" stroke="black" stroke-dasharray="5,2" d="M1382.18,-1028.99C1293.84,-1004.14 1151.09,-950.55 1074,-850 1063.87,-836.79 1057.35,-820.63 1053.19,-804.33"/>
<polygon fill="black" stroke="black" points="1056.51,-803.16 1050.89,-794.18 1049.68,-804.71 1056.51,-803.16"/>
<text text-anchor="middle" x="1343" y="-935.8" font-family="Times,serif" font-size="14.00">False</text>
</g>
<!-- _275739432 -->
<g id="node12" class="node">
<title>_275739432</title>
<polygon fill="white" stroke="black" points="2309,-850 1083,-850 1083,-812 2309,-812 2309,-850"/>
<text text-anchor="start" x="1091" y="-834.8" font-family="Times,serif" font-size="14.00">i41 = @neq(EnumConstant(&#39;zRISCV_ANDI&#39;, Enum(&#39;ziop&#39;, (&#39;zRISCV_ADDI&#39;, &#39;zRISCV_SLTI&#39;, &#39;zRISCV_SLTIU&#39;, &#39;zRISCV_XORI&#39;, &#39;zRISCV_ORI&#39;, &#39;zRISCV_ANDI&#39;))), i7) [Operation]</text>
<text text-anchor="middle" x="1696" y="-819.8" font-family="Times,serif" font-size="14.00">goto if i41</text>
</g>
<!-- _275739264&#45;&gt;_275739432 -->
<g id="edge18" class="edge">
<title>_275739264&#45;&gt;_275739432</title>
<path fill="none" stroke="black" stroke-dasharray="5,2" d="M1479.21,-1028.67C1521.62,-990.19 1619.99,-900.95 1668.27,-857.16"/>
<polygon fill="black" stroke="black" points="1670.79,-859.6 1675.84,-850.28 1666.09,-854.41 1670.79,-859.6"/>
<text text-anchor="middle" x="1673" y="-935.8" font-family="Times,serif" font-size="14.00">True</text>
</g>
<!-- _275739376&#45;&gt;_275738872 -->
<g id="edge7" class="edge">
<title>_275739376&#45;&gt;_275738872</title>
<path fill="none" stroke="black" stroke-dasharray="5,2" d="M1035.77,-650.97C1031.21,-616.55 1027,-574.46 1027,-536.5 1027,-536.5 1027,-536.5 1027,-276.5 1027,-249.23 1044.46,-224.44 1062.65,-206.01"/>
<polygon fill="black" stroke="black" points="1065.12,-208.49 1069.89,-199.02 1060.26,-203.45 1065.12,-208.49"/>
</g>
<!-- _275739488 -->
<g id="node13" class="node">
<title>_275739488</title>
<polygon fill="white" stroke="black" points="1317.5,-577 1042.5,-577 1042.5,-494 1317.5,-494 1317.5,-577"/>
<text text-anchor="start" x="1050.5" y="-561.8" font-family="Times,serif" font-size="14.00">i42 = $cast(i8) [Cast]</text>
<text text-anchor="start" x="1050.5" y="-546.8" font-family="Times,serif" font-size="14.00">i43 = $cast(i12) [Cast]</text>
<text text-anchor="start" x="1050.5" y="-531.8" font-family="Times,serif" font-size="14.00">i44 = zand_vec(i42, i43) [Operation]</text>
<text text-anchor="start" x="1050.5" y="-516.8" font-family="Times,serif" font-size="14.00">i21 = $cast(i44) [Cast]</text>
<text text-anchor="middle" x="1180" y="-501.8" font-family="Times,serif" font-size="14.00">goto</text>
</g>
<!-- _275739432&#45;&gt;_275739488 -->
<g id="edge10" class="edge">
<title>_275739432&#45;&gt;_275739488</title>
<path fill="none" stroke="black" stroke-dasharray="5,2" d="M1654.21,-811.99C1581.31,-779.91 1427.1,-709.03 1306,-633 1282.41,-618.19 1257.81,-600.03 1236.66,-583.47"/>
<polygon fill="black" stroke="black" points="1238.76,-580.67 1228.74,-577.22 1234.42,-586.16 1238.76,-580.67"/>
<text text-anchor="middle" x="1630" y="-718.8" font-family="Times,serif" font-size="14.00">False</text>
</g>
<!-- _275739600 -->
<g id="node14" class="node">
<title>_275739600</title>
<polygon fill="white" stroke="black" points="2530.5,-633 1315.5,-633 1315.5,-595 2530.5,-595 2530.5,-633"/>
<text text-anchor="start" x="1323.5" y="-617.8" font-family="Times,serif" font-size="14.00">i45 = @neq(EnumConstant(&#39;zRISCV_ORI&#39;, Enum(&#39;ziop&#39;, (&#39;zRISCV_ADDI&#39;, &#39;zRISCV_SLTI&#39;, &#39;zRISCV_SLTIU&#39;, &#39;zRISCV_XORI&#39;, &#39;zRISCV_ORI&#39;, &#39;zRISCV_ANDI&#39;))), i7) [Operation]</text>
<text text-anchor="middle" x="1923" y="-602.8" font-family="Times,serif" font-size="14.00">goto if i45</text>
</g>
<!-- _275739432&#45;&gt;_275739600 -->
<g id="edge17" class="edge">
<title>_275739432&#45;&gt;_275739600</title>
<path fill="none" stroke="black" stroke-dasharray="5,2" d="M1715.35,-811.67C1755.9,-773.27 1849.81,-684.32 1896.15,-640.43"/>
<polygon fill="black" stroke="black" points="1898.84,-642.7 1903.7,-633.28 1894.03,-637.62 1898.84,-642.7"/>
<text text-anchor="middle" x="1901" y="-718.8" font-family="Times,serif" font-size="14.00">True</text>
</g>
<!-- _275739488&#45;&gt;_275738872 -->
<g id="edge9" class="edge">
<title>_275739488&#45;&gt;_275738872</title>
<path fill="none" stroke="black" stroke-dasharray="5,2" d="M1171.32,-493.79C1156.16,-422.73 1125.11,-277.18 1110.69,-209.54"/>
<polygon fill="black" stroke="black" points="1114.03,-208.42 1108.52,-199.37 1107.18,-209.88 1114.03,-208.42"/>
</g>
<!-- _275739712 -->
<g id="node15" class="node">
<title>_275739712</title>
<polygon fill="white" stroke="black" points="1447,-420 1183,-420 1183,-337 1447,-337 1447,-420"/>
<text text-anchor="start" x="1191" y="-404.8" font-family="Times,serif" font-size="14.00">i46 = $cast(i8) [Cast]</text>
<text text-anchor="start" x="1191" y="-389.8" font-family="Times,serif" font-size="14.00">i47 = $cast(i12) [Cast]</text>
<text text-anchor="start" x="1191" y="-374.8" font-family="Times,serif" font-size="14.00">i48 = zor_vec(i46, i47) [Operation]</text>
<text text-anchor="start" x="1191" y="-359.8" font-family="Times,serif" font-size="14.00">i22 = $cast(i48) [Cast]</text>
<text text-anchor="middle" x="1315" y="-344.8" font-family="Times,serif" font-size="14.00">goto</text>
</g>
<!-- _275739600&#45;&gt;_275739712 -->
<g id="edge12" class="edge">
<title>_275739600&#45;&gt;_275739712</title>
<path fill="none" stroke="black" stroke-dasharray="5,2" d="M1796.17,-594.98C1651.67,-572.28 1427,-529.65 1361,-476 1346.55,-464.26 1336.37,-446.9 1329.32,-430.13"/>
<polygon fill="black" stroke="black" points="1332.41,-428.42 1325.52,-420.37 1325.88,-430.96 1332.41,-428.42"/>
<text text-anchor="middle" x="1709" y="-531.8" font-family="Times,serif" font-size="14.00">False</text>
</g>
<!-- _275739992 -->
<g id="node16" class="node">
<title>_275739992</title>
<polygon fill="white" stroke="black" points="2594.5,-476 1369.5,-476 1369.5,-438 2594.5,-438 2594.5,-476"/>
<text text-anchor="start" x="1377.5" y="-460.8" font-family="Times,serif" font-size="14.00">i49 = @neq(EnumConstant(&#39;zRISCV_XORI&#39;, Enum(&#39;ziop&#39;, (&#39;zRISCV_ADDI&#39;, &#39;zRISCV_SLTI&#39;, &#39;zRISCV_SLTIU&#39;, &#39;zRISCV_XORI&#39;, &#39;zRISCV_ORI&#39;, &#39;zRISCV_ANDI&#39;))), i7) [Operation]</text>
<text text-anchor="middle" x="1982" y="-445.8" font-family="Times,serif" font-size="14.00">goto if i49</text>
</g>
<!-- _275739600&#45;&gt;_275739992 -->
<g id="edge16" class="edge">
<title>_275739600&#45;&gt;_275739992</title>
<path fill="none" stroke="black" stroke-dasharray="5,2" d="M1929.88,-594.92C1940.09,-568.11 1959.31,-517.6 1971.34,-485.99"/>
<polygon fill="black" stroke="black" points="1974.69,-487.04 1974.98,-476.45 1968.15,-484.55 1974.69,-487.04"/>
<text text-anchor="middle" x="1984" y="-531.8" font-family="Times,serif" font-size="14.00">True</text>
</g>
<!-- _275739712&#45;&gt;_275738872 -->
<g id="edge11" class="edge">
<title>_275739712&#45;&gt;_275738872</title>
<path fill="none" stroke="black" stroke-dasharray="5,2" d="M1276.9,-336.77C1245.36,-303.62 1198.92,-256.09 1156,-217 1151.93,-213.29 1147.6,-209.51 1143.24,-205.79"/>
<polygon fill="black" stroke="black" points="1145.31,-202.96 1135.4,-199.2 1140.81,-208.32 1145.31,-202.96"/>
</g>
<!-- _275740104 -->
<g id="node17" class="node">
<title>_275740104</title>
<polygon fill="white" stroke="black" points="1678,-319 1406,-319 1406,-236 1678,-236 1678,-319"/>
<text text-anchor="start" x="1414" y="-303.8" font-family="Times,serif" font-size="14.00">i50 = $cast(i8) [Cast]</text>
<text text-anchor="start" x="1414" y="-288.8" font-family="Times,serif" font-size="14.00">i51 = $cast(i12) [Cast]</text>
<text text-anchor="start" x="1414" y="-273.8" font-family="Times,serif" font-size="14.00">i52 = zxor_vec(i50, i51) [Operation]</text>
<text text-anchor="start" x="1414" y="-258.8" font-family="Times,serif" font-size="14.00">i23 = $cast(i52) [Cast]</text>
<text text-anchor="middle" x="1542" y="-243.8" font-family="Times,serif" font-size="14.00">goto</text>
</g>
<!-- _275739992&#45;&gt;_275740104 -->
<g id="edge14" class="edge">
<title>_275739992&#45;&gt;_275740104</title>
<path fill="none" stroke="black" stroke-dasharray="5,2" d="M1936.98,-437.84C1870.49,-411.02 1743.99,-359.98 1652.02,-322.88"/>
<polygon fill="black" stroke="black" points="1653.25,-319.61 1642.67,-319.11 1650.63,-326.1 1653.25,-319.61"/>
<text text-anchor="middle" x="1905" y="-374.8" font-family="Times,serif" font-size="14.00">False</text>
</g>
<!-- _275740216 -->
<g id="node18" class="node">
<title>_275740216</title>
<polygon fill="yellow" stroke="black" points="2171,-295.5 1793,-295.5 1793,-259.5 2171,-259.5 2171,-295.5"/>
<text text-anchor="middle" x="1982" y="-273.8" font-family="Times,serif" font-size="14.00">Raise(StringConstant(&#39;match&#39;), &#39;`39 181:26&#45;188:3&#39;)</text>
</g>
<!-- _275739992&#45;&gt;_275740216 -->
<g id="edge15" class="edge">
<title>_275739992&#45;&gt;_275740216</title>
<path fill="none" stroke="black" stroke-dasharray="5,2" d="M1982,-437.67C1982,-406.45 1982,-342.76 1982,-306.12"/>
<polygon fill="black" stroke="black" points="1985.5,-305.68 1982,-295.68 1978.5,-305.68 1985.5,-305.68"/>
<text text-anchor="middle" x="1999" y="-374.8" font-family="Times,serif" font-size="14.00">True</text>
</g>
<!-- _275740104&#45;&gt;_275738872 -->
<g id="edge13" class="edge">
<title>_275740104&#45;&gt;_275738872</title>
<path fill="none" stroke="black" stroke-dasharray="5,2" d="M1405.8,-244.55C1346.78,-230.7 1278.33,-214.64 1221.45,-201.29"/>
<polygon fill="black" stroke="black" points="1222.23,-197.88 1211.7,-199 1220.63,-204.69 1222.23,-197.88"/>
</g>
</g>
</svg>
