<?xml version="1.0" standalone="yes"?>

<svg version="1.1" viewBox="0.0 0.0 960.0 720.0" fill="none" stroke="none" stroke-linecap="square" stroke-miterlimit="10" xmlns="http://www.w3.org/2000/svg" xmlns:xlink="http://www.w3.org/1999/xlink"><clipPath id="p.0"><path d="m0 0l960.0 0l0 720.0l-960.0 0l0 -720.0z" clip-rule="nonzero"></path></clipPath><g clip-path="url(#p.0)"><path fill="#000000" fill-opacity="0.0" d="m0 0l960.0 0l0 720.0l-960.0 0z" fill-rule="nonzero"></path><path fill="#000000" fill-opacity="0.0" d="m57.238846 356.69815l803.2441 0" fill-rule="nonzero"></path><path stroke="#000000" stroke-width="3.0" stroke-linejoin="round" stroke-linecap="butt" d="m57.238846 356.69815l785.2441 0" fill-rule="evenodd"></path><path fill="#000000" stroke="#000000" stroke-width="3.0" stroke-linecap="butt" d="m842.4829 361.65335l13.614319 -4.9552l-13.614319 -4.9552z" fill-rule="evenodd"></path><path fill="#000000" fill-opacity="0.0" d="m57.238846 187.26772l803.2441 0" fill-rule="nonzero"></path><path stroke="#000000" stroke-width="3.0" stroke-linejoin="round" stroke-linecap="butt" d="m57.238846 187.26772l785.2441 0" fill-rule="evenodd"></path><path fill="#000000" stroke="#000000" stroke-width="3.0" stroke-linecap="butt" d="m842.4829 192.22292l13.614319 -4.9552l-13.614319 -4.9552z" fill-rule="evenodd"></path><path fill="#ffffff" d="m536.3504 19.816273l48.881897 0l0 426.70865l-48.881897 0z" fill-rule="nonzero"></path><path stroke="#000000" stroke-width="2.0" stroke-linejoin="round" stroke-linecap="butt" d="m536.3504 19.816273l48.881897 0l0 426.70865l-48.881897 0z" fill-rule="nonzero"></path><path fill="#cfe2f3" d="m108.33071 154.71686l0 0c0 -8.836731 7.163582 -16.00032 16.00032 -16.00032l436.97574 0c4.2435303 0 8.313293 1.6857452 11.313904 4.686386c3.0006714 3.0006409 4.6864014 7.070389 4.6864014 11.313934l0 63.99936c0 8.836731 -7.163574 16.00032 -16.000305 16.00032l-436.97574 0l0 0c-8.836739 0 -16.00032 -7.1635895 -16.00032 -16.00032z" fill-rule="nonzero"></path><path stroke="#000000" stroke-width="2.0" stroke-linejoin="round" stroke-linecap="butt" d="m108.33071 154.71686l0 0c0 -8.836731 7.163582 -16.00032 16.00032 -16.00032l436.97574 0c4.2435303 0 8.313293 1.6857452 11.313904 4.686386c3.0006714 3.0006409 4.6864014 7.070389 4.6864014 11.313934l0 63.99936c0 8.836731 -7.163574 16.00032 -16.000305 16.00032l-436.97574 0l0 0c-8.836739 0 -16.00032 -7.1635895 -16.00032 -16.00032z" fill-rule="nonzero"></path><path fill="#ffffff" d="m433.33203 19.816273l48.881866 0l0 426.70865l-48.881866 0z" fill-rule="nonzero"></path><path stroke="#000000" stroke-width="2.0" stroke-linejoin="round" stroke-linecap="butt" d="m433.33203 19.816273l48.881866 0l0 426.70865l-48.881866 0z" fill-rule="nonzero"></path><path fill="#cfe2f3" d="m274.7979 324.6985l0 0c0 -8.836731 7.163574 -16.000336 16.000305 -16.000336l168.78677 0c4.2435303 0 8.313293 1.6857605 11.313934 4.6864014c3.0006409 3.0006409 4.686371 7.0703735 4.686371 11.313934l0 63.99936c0 8.836731 -7.163574 16.000305 -16.000305 16.000305l-168.78677 0c-8.836731 0 -16.000305 -7.163574 -16.000305 -16.000305z" fill-rule="nonzero"></path><path stroke="#000000" stroke-width="2.0" stroke-linejoin="round" stroke-linecap="butt" d="m274.7979 324.6985l0 0c0 -8.836731 7.163574 -16.000336 16.000305 -16.000336l168.78677 0c4.2435303 0 8.313293 1.6857605 11.313934 4.6864014c3.0006409 3.0006409 4.686371 7.0703735 4.686371 11.313934l0 63.99936c0 8.836731 -7.163574 16.000305 -16.000305 16.000305l-168.78677 0c-8.836731 0 -16.000305 -7.163574 -16.000305 -16.000305z" fill-rule="nonzero"></path><path fill="#ffffff" d="m214.0315 19.816273l48.881897 0l0 426.70865l-48.881897 0z" fill-rule="nonzero"></path><path stroke="#000000" stroke-width="2.0" stroke-linejoin="round" stroke-linecap="butt" d="m214.0315 19.816273l48.881897 0l0 426.70865l-48.881897 0z" fill-rule="nonzero"></path><path fill="#cfe2f3" d="m108.33071 324.6985l0 0c0 -8.836731 7.163582 -16.000336 16.00032 -16.000336l115.96786 0c4.2435455 0 8.313293 1.6857605 11.313934 4.6864014c3.0006409 3.0006409 4.6864014 7.0703735 4.6864014 11.313934l0 63.99936c0 8.836731 -7.1636047 16.000305 -16.000336 16.000305l-115.96786 0c-8.836739 0 -16.00032 -7.163574 -16.00032 -16.000305z" fill-rule="nonzero"></path><path stroke="#000000" stroke-width="2.0" stroke-linejoin="round" stroke-linecap="butt" d="m108.33071 324.6985l0 0c0 -8.836731 7.163582 -16.000336 16.00032 -16.000336l115.96786 0c4.2435455 0 8.313293 1.6857605 11.313934 4.6864014c3.0006409 3.0006409 4.6864014 7.0703735 4.6864014 11.313934l0 63.99936c0 8.836731 -7.1636047 16.000305 -16.000336 16.000305l-115.96786 0c-8.836739 0 -16.00032 -7.163574 -16.00032 -16.000305z" fill-rule="nonzero"></path><path fill="#000000" fill-opacity="0.0" d="m38.755905 138.71654l69.57481 0l0 48.0l-69.57481 0z" fill-rule="nonzero"></path><path fill="#000000" d="m55.24028 178.43654l0 -19.03125l-6.796875 0l0 -3.875l18.203125 0l0 3.875l-6.78125 0l0 19.03125l-4.625 0zm24.65625 0l-4.390625 0l0 -16.546875q-2.40625 2.25 -5.671875 3.328125l0 -3.984375q1.71875 -0.5625 3.734375 -2.125q2.015625 -1.578125 2.765625 -3.671875l3.5625 0l0 23.0z" fill-rule="nonzero"></path><path fill="#000000" fill-opacity="0.0" d="m38.755905 308.69815l69.57481 0l0 48.0l-69.57481 0z" fill-rule="nonzero"></path><path fill="#000000" d="m55.24028 348.41815l0 -19.03125l-6.796875 0l0 -3.875l18.203125 0l0 3.875l-6.78125 0l0 19.03125l-4.625 0zm28.25 -4.078125l0 4.078125l-15.390625 0q0.25 -2.3125 1.5 -4.375q1.25 -2.078125 4.9375 -5.5q2.96875 -2.765625 3.640625 -3.75q0.90625 -1.359375 0.90625 -2.6875q0 -1.46875 -0.796875 -2.25q-0.78125 -0.796875 -2.171875 -0.796875q-1.375 0 -2.1875 0.828125q-0.8125 0.828125 -0.9375 2.75l-4.375 -0.4375q0.390625 -3.625 2.453125 -5.203125q2.0625 -1.578125 5.15625 -1.578125q3.390625 0 5.328125 1.828125q1.9375 1.828125 1.9375 4.546875q0 1.546875 -0.5625 2.953125q-0.546875 1.390625 -1.75 2.921875q-0.796875 1.015625 -2.875 2.921875q-2.078125 1.90625 -2.640625 2.53125q-0.546875 0.625 -0.890625 1.21875l8.71875 0z" fill-rule="nonzero"></path><path fill="#ffffff" fill-opacity="0.4" d="m214.0315 19.816273l48.881897 0l0 426.70865l-48.881897 0z" fill-rule="nonzero"></path><path stroke="#000000" stroke-width="2.0" stroke-linejoin="round" stroke-linecap="butt" d="m214.0315 19.816273l48.881897 0l0 426.70865l-48.881897 0z" fill-rule="nonzero"></path><path fill="#ffffff" fill-opacity="0.4" d="m433.32547 19.816273l48.881866 0l0 426.70865l-48.881866 0z" fill-rule="nonzero"></path><path stroke="#000000" stroke-width="2.0" stroke-linejoin="round" stroke-linecap="butt" d="m433.32547 19.816273l48.881866 0l0 426.70865l-48.881866 0z" fill-rule="nonzero"></path><path fill="#ffffff" fill-opacity="0.4" d="m536.3517 19.816273l48.881897 0l0 426.70865l-48.881897 0z" fill-rule="nonzero"></path><path stroke="#000000" stroke-width="2.0" stroke-linejoin="round" stroke-linecap="butt" d="m536.3517 19.816273l48.881897 0l0 426.70865l-48.881897 0z" fill-rule="nonzero"></path></g></svg>

